HIERARCHY
ROOT Hips
{
	OFFSET 0.000000 0.000000 0.000000
	CHANNELS 6 Xposition Yposition Zposition Zrotation Yrotation Xrotation 
	JOINT LowerBack
	{
		OFFSET 0.000000 0.000000 0.000000
		CHANNELS 3 Zrotation Yrotation Xrotation
		JOINT Spine
		{
			OFFSET 0.028270 2.035590 -0.193380
			CHANNELS 3 Zrotation Yrotation Xrotation
			JOINT Spine1
			{
				OFFSET 0.056720 2.048850 -0.042750
				CHANNELS 3 Zrotation Yrotation Xrotation
				JOINT Neck
				{
					OFFSET 0.000000 0.000000 0.000000
					CHANNELS 3 Zrotation Yrotation Xrotation
					JOINT Neck1
					{
						OFFSET -0.054170 1.746240 0.172020
						CHANNELS 3 Zrotation Yrotation Xrotation
						JOINT Head
						{
							OFFSET 0.104070 1.761360 -0.123970
							CHANNELS 3 Zrotation Yrotation Xrotation
							End Site
							{
								OFFSET 0.000000 0.000000 0.000000
							}
						}
					}
				}
				JOINT LeftShoulder
				{
					OFFSET 0.000000 0.000000 0.000000
					CHANNELS 3 Zrotation Yrotation Xrotation
					JOINT LeftArm
					{
						OFFSET 3.362410 1.200890 -0.311210
						CHANNELS 3 Zrotation Yrotation Xrotation
						JOINT LeftForeArm
						{
							OFFSET 4.983000 -0.000000 -0.000000
							CHANNELS 3 Zrotation Yrotation Xrotation
							JOINT LeftHand
							{
								OFFSET 3.483560 -0.000000 -0.000000
								CHANNELS 3 Zrotation Yrotation Xrotation
								JOINT LeftFingerBase
								{
									OFFSET 0.000000 0.000000 0.000000
									CHANNELS 3 Zrotation Yrotation Xrotation
									JOINT LeftHandIndex1
									{
										OFFSET 0.715260 -0.000000 -0.000000
										CHANNELS 3 Zrotation Yrotation Xrotation
										End Site
										{
											OFFSET 0.000000 0.000000 0.000000
										}
									}
								}
								JOINT LThumb
								{
									OFFSET 0.000000 0.000000 0.000000
									CHANNELS 3 Zrotation Yrotation Xrotation
									End Site
									{
										OFFSET 0.000000 0.000000 0.000000
									}
								}
							}
						}
					}
				}
				JOINT RightShoulder
				{
					OFFSET 0.000000 0.000000 0.000000
					CHANNELS 3 Zrotation Yrotation Xrotation
					JOINT RightArm
					{
						OFFSET -3.136600 1.374050 -0.404650
						CHANNELS 3 Zrotation Yrotation Xrotation
						JOINT RightForeArm
						{
							OFFSET -5.241900 -0.000000 -0.000000
							CHANNELS 3 Zrotation Yrotation Xrotation
							JOINT RightHand
							{
								OFFSET -3.444170 -0.000000 -0.000000
								CHANNELS 3 Zrotation Yrotation Xrotation
								JOINT RightFingerBase
								{
									OFFSET 0.000000 0.000000 0.000000
									CHANNELS 3 Zrotation Yrotation Xrotation
									JOINT RightHandIndex1
									{
										OFFSET -0.622530 -0.000000 -0.000000
										CHANNELS 3 Zrotation Yrotation Xrotation
										End Site
										{
											OFFSET 0.000000 0.000000 0.000000
										}
									}
								}
								JOINT RThumb
								{
									OFFSET 0.000000 0.000000 0.000000
									CHANNELS 3 Zrotation Yrotation Xrotation
									End Site
									{
										OFFSET 0.000000 0.000000 0.000000
									}
								}
							}
						}
					}
				}
			}
		}
	}
}
}
MOTION
Frames: 9
Frame Time: 0.008333
5.157012 17.350582 1.164548 -176.482491 -61.693970 -174.401394 5.139366 -5.687080 -6.267213 0.926684 -6.196017 -4.738394 -5.600057 -6.348306 -3.284476 8.475007 -3.289451 1.920775 -1.604874 -0.260951 2.691424 0.000000 0.000000 0.000000 6.501088 -11.083961 5.181818 -46.486860 -34.873475 -12.489495 -3.187381 2.182068 -0.028721 1.630883 8.938593 0.135906 -0.149037 0.198540 0.000000 0.000000 0.000000 0.000000 0.000000 0.000000 0.000000 2.301504 -4.109738 -9.262389 88.771719 65.767945 16.242973 -176.270350 68.108965 179.736859 -10.766124 18.998384 -1.892867 -0.188654 -1.127207 0.000000 0.000000 0.000000 0.000000 0.000000 0.000000 0.000000 
5.161972 17.346345 1.163858 -176.787659 -61.541238 -174.220221 5.054030 -5.547467 -6.139900 0.939579 -6.054502 -4.702212 -5.502777 -6.214179 -3.206626 8.163559 -3.284763 1.707969 -1.581203 -0.255316 2.631319 0.000000 0.000000 0.000000 5.146776 -10.181446 5.191365 -47.691975 -34.344106 -11.532894 -3.191190 -1.861217 -0.024408 0.767691 9.556015 0.073650 -0.132517 0.205145 0.000000 0.000000 0.000000 0.000000 0.000000 0.000000 0.000000 1.700412 -3.930374 -9.095441 86.943995 65.663536 14.341147 -176.173836 67.300846 179.735622 -10.917527 18.819835 -1.904112 -0.182291 -1.131641 0.000000 0.000000 0.000000 0.000000 0.000000 0.000000 0.000000 
5.168930 17.342509 1.161686 -177.092918 -61.421622 -174.013555 4.949126 -5.386642 -6.022490 0.944611 -5.890647 -4.670521 -5.417899 -6.058262 -3.145892 7.838543 -3.263652 1.520150 -1.555191 -0.249935 2.578284 0.000000 0.000000 0.000000 3.920944 -9.320480 5.191455 -48.575039 -33.788133 -9.343078 -3.266640 -6.606846 -0.018218 -0.780585 10.528786 -0.059689 -0.118025 0.203810 0.000000 0.000000 0.000000 0.000000 0.000000 0.000000 0.000000 1.079662 -3.725990 -8.939746 85.185386 65.476385 12.394504 -176.061003 66.438322 179.732523 -11.159696 18.751273 -1.942654 -0.174108 -1.139088 0.000000 0.000000 0.000000 0.000000 0.000000 0.000000 0.000000 
5.177189 17.339413 1.158005 -177.388753 -61.345251 -173.783852 4.833448 -5.206144 -5.926041 0.941028 -5.707284 -4.643607 -5.352497 -5.882295 -3.096346 7.507459 -3.241028 1.361685 -1.527514 -0.244967 2.533649 0.000000 0.000000 0.000000 2.857156 -8.491444 5.176796 -49.116424 -33.409827 -6.798858 -3.330504 -11.507150 -0.011252 -2.553622 11.506410 -0.242136 -0.104412 0.198355 0.000000 0.000000 0.000000 0.000000 0.000000 0.000000 0.000000 0.457931 -3.522985 -8.806482 83.594945 65.214418 10.506767 -175.934647 65.557706 179.727766 -11.480362 18.780999 -2.005292 -0.164569 -1.148854 0.000000 0.000000 0.000000 0.000000 0.000000 0.000000 0.000000 
5.186180 17.337286 1.152876 -177.667333 -61.316426 -173.535522 4.710964 -5.010763 -5.856355 0.929175 -5.509600 -4.621370 -5.306212 -5.690546 -3.054329 7.179622 -3.228480 1.233854 -1.500009 -0.240571 2.497836 0.000000 0.000000 0.000000 2.012675 -7.670790 5.132223 -49.443249 -33.341073 -4.408935 -3.330567 -16.212772 -0.004452 -4.195134 12.314700 -0.435512 -0.090467 0.191496 0.000000 0.000000 0.000000 0.000000 0.000000 0.000000 0.000000 -0.142016 -3.340798 -8.702702 82.241648 64.899758 8.762567 -175.799252 64.692519 179.721751 -11.858021 18.887466 -2.086924 -0.154263 -1.160094 0.000000 0.000000 0.000000 0.000000 0.000000 0.000000 0.000000 
5.195148 17.336289 1.146433 -177.920004 -61.335448 -173.273080 4.587676 -4.806596 -5.816833 0.910807 -5.304014 -4.604539 -5.275619 -5.488863 -3.020096 6.858995 -3.233062 1.138643 -1.475943 -0.236980 2.471481 0.000000 0.000000 0.000000 1.423003 -6.847322 5.042398 -49.695025 -33.587386 -2.316763 -3.244762 -20.636590 0.001362 -5.446897 12.960618 -0.601023 -0.076089 0.184929 0.000000 0.000000 0.000000 0.000000 0.000000 0.000000 0.000000 -0.699800 -3.189759 -8.629888 81.174273 64.563371 7.235832 -175.662210 63.880384 179.715034 -12.260484 19.046219 -2.179751 -0.143941 -1.171962 0.000000 0.000000 0.000000 0.000000 0.000000 0.000000 0.000000 
5.203682 17.336448 1.138910 -178.143256 -61.400329 -173.003014 4.469401 -4.599618 -5.807511 0.887960 -5.096677 -4.594411 -5.256814 -5.283231 -2.998520 6.547754 -3.255765 1.079936 -1.459056 -0.234474 2.455734 0.000000 0.000000 0.000000 1.094820 -6.025717 4.893918 -49.973661 -34.083694 -0.576656 -3.062983 -24.822570 0.005739 -6.134438 13.501154 -0.708971 -0.061704 0.180234 0.000000 0.000000 0.000000 0.000000 0.000000 0.000000 0.000000 -1.196571 -3.072288 -8.584758 80.415426 64.237269 5.977192 -175.531508 63.151660 179.708259 -12.649777 19.230924 -2.274271 -0.134451 -1.183681 0.000000 0.000000 0.000000 0.000000 0.000000 0.000000 0.000000 
5.211398 17.337680 1.130547 -178.334314 -61.507305 -172.732090 4.360704 -4.394593 -5.825826 0.862395 -4.892391 -4.592588 -5.246695 -5.078595 -2.997803 6.246853 -3.292705 1.063168 -1.453101 -0.233344 2.452144 0.000000 0.000000 0.000000 1.005615 -5.224023 4.676038 -50.332720 -34.729277 0.778799 -2.781838 -28.887907 0.008435 -6.153076 13.986009 -0.738947 -0.048184 0.179048 0.000000 0.000000 0.000000 0.000000 0.000000 0.000000 0.000000 -1.616660 -2.985895 -8.560140 79.960045 63.948245 5.009342 -175.415107 62.529459 179.702049 -12.987993 19.416717 -2.360679 -0.126600 -1.194590 0.000000 0.000000 0.000000 0.000000 0.000000 0.000000 0.000000 
5.218046 17.339748 1.121638 -178.491232 -61.652094 -172.468013 4.263923 -4.194410 -5.867193 0.835242 -4.693861 -4.600693 -5.243092 -4.877951 -3.028251 5.958209 -3.336734 1.094618 -1.461767 -0.233878 2.462448 0.000000 0.000000 0.000000 1.112418 -4.470117 4.380508 -50.785355 -35.418231 1.715453 -2.404551 -32.969870 0.009187 -5.451851 14.414423 -0.675543 -0.036734 0.183272 0.000000 0.000000 0.000000 0.000000 0.000000 0.000000 0.000000 -1.945142 -2.925428 -8.546405 79.778547 63.716340 4.331672 -175.320687 62.029900 179.696969 -13.241662 19.583299 -2.429677 -0.121040 -1.204160 0.000000 0.000000 0.000000 0.000000 0.000000 0.000000 0.000000 
